<?xml version="1.0" encoding="utf-8"?><!-- Uploaded to: SVG Repo, www.svgrepo.com, Generator: SVG Repo Mixer Tools -->
<svg width="800px" height="800px" viewBox="0 0 24 24" fill="none" xmlns="http://www.w3.org/2000/svg">
<path d="M16.3788 6.20698
C15.1885 5.25459 13.7434 4.5 12 4.5
C7.85787 4.5 4.5 7.85786 4.5 12
C4.5 16.1421 7.85787 19.5 12 19.5
C15.2549 19.5 18.028 17.4254 19.0646 14.5256
C19.2505 14.0055 19.775 13.6568 20.3153 13.7713
L21.2935 13.9787
C21.8338 14.0932 22.1836 14.6262 22.0179 15.1531
C20.6787 19.4112 16.7016 22.5 12 22.5
C6.20101 22.5 1.5 17.799 1.5 12
C1.5 6.20101 6.20101 1.5 12 1.5
C14.7835 1.5 16.9516 2.76847 18.5112 4.0746
L20.2929 2.29289
C20.5789 2.00689 21.009 1.92134 21.3827 2.07612
C21.7564 2.2309 22 2.59554 22 3
V8.5
C22 9.05228 21.5523 9.5 21 9.5
H15.5
C15.0956 9.5 14.7309 9.25636 14.5761 8.88268
C14.4214 8.50901 14.5069 8.07889 14.7929 7.79289
L16.3788 6.20698Z" fill="white"/>
</svg>